<svg xmlns="http://www.w3.org/2000/svg" width="1655" height="869" style="cursor: move; touch-action: none; -webkit-tap-highlight-color: rgba(0, 0, 0, 0);"><g transform="translate(-19.354623650290023,-123.24289102342914) scale(1.1486983549970355)"><path class="link" marker-end="" d="M667.5,364.5, 847.5,324.5" style="stroke-width: 0.52; stroke-opacity: 1; stroke: rgb(80, 80, 80);"></path><path class="link" marker-end="" d="M667.5,364.5, 847.5,364.5" style="stroke-width: 0.52; stroke-opacity: 1; stroke: rgb(80, 80, 80);"></path><path class="link" marker-end="" d="M667.5,364.5, 847.5,404.5" style="stroke-width: 0.52; stroke-opacity: 1; stroke: rgb(80, 80, 80);"></path><path class="link" marker-end="" d="M667.5,364.5, 847.5,444.5" style="stroke-width: 0.52; stroke-opacity: 1; stroke: rgb(80, 80, 80);"></path><path class="link" marker-end="" d="M667.5,404.5, 847.5,324.5" style="stroke-width: 0.52; stroke-opacity: 1; stroke: rgb(80, 80, 80);"></path><path class="link" marker-end="" d="M667.5,404.5, 847.5,364.5" style="stroke-width: 0.52; stroke-opacity: 1; stroke: rgb(80, 80, 80);"></path><path class="link" marker-end="" d="M667.5,404.5, 847.5,404.5" style="stroke-width: 0.52; stroke-opacity: 1; stroke: rgb(80, 80, 80);"></path><path class="link" marker-end="" d="M667.5,404.5, 847.5,444.5" style="stroke-width: 0.52; stroke-opacity: 1; stroke: rgb(80, 80, 80);"></path><path class="link" marker-end="" d="M847.5,324.5, 1027.5,404.5" style="stroke-width: 0.52; stroke-opacity: 1; stroke: rgb(80, 80, 80);"></path><path class="link" marker-end="" d="M847.5,364.5, 1027.5,404.5" style="stroke-width: 0.52; stroke-opacity: 1; stroke: rgb(80, 80, 80);"></path><path class="link" marker-end="" d="M847.5,404.5, 1027.5,404.5" style="stroke-width: 0.52; stroke-opacity: 1; stroke: rgb(80, 80, 80);"></path><path class="link" marker-end="" d="M847.5,444.5, 1027.5,404.5" style="stroke-width: 0.52; stroke-opacity: 1; stroke: rgb(80, 80, 80);"></path><path class="link" marker-end="" d="M667.5,444.5, 847.5,324.5" style="stroke-width: 0.52; stroke-opacity: 1; stroke: rgb(80, 80, 80);"></path><path class="link" marker-end="" d="M667.5,444.5, 847.5,364.5" style="stroke-width: 0.52; stroke-opacity: 1; stroke: rgb(80, 80, 80);"></path><path class="link" marker-end="" d="M667.5,444.5, 847.5,404.5" style="stroke-width: 0.52; stroke-opacity: 1; stroke: rgb(80, 80, 80);"></path><path class="link" marker-end="" d="M667.5,444.5, 847.5,444.5" style="stroke-width: 0.52; stroke-opacity: 1; stroke: rgb(80, 80, 80);"></path><path class="link" marker-end="" d="M667.5,484.5, 847.5,324.5" style="stroke-width: 0.52; stroke-opacity: 1; stroke: rgb(80, 80, 80);"></path><path class="link" marker-end="" d="M667.5,484.5, 847.5,364.5" style="stroke-width: 0.52; stroke-opacity: 1; stroke: rgb(80, 80, 80);"></path><path class="link" marker-end="" d="M667.5,484.5, 847.5,404.5" style="stroke-width: 0.52; stroke-opacity: 1; stroke: rgb(80, 80, 80);"></path><path class="link" marker-end="" d="M667.5,484.5, 847.5,444.5" style="stroke-width: 0.52; stroke-opacity: 1; stroke: rgb(80, 80, 80);"></path><path class="link" marker-end="" d="M667.5,364.5, 847.5,484.5" style="stroke-width: 0.52; stroke-opacity: 1; stroke: rgb(80, 80, 80);"></path><path class="link" marker-end="" d="M667.5,364.5, 847.5,524.5" style="stroke-width: 0.52; stroke-opacity: 1; stroke: rgb(80, 80, 80);"></path><path class="link" marker-end="" d="M667.5,404.5, 847.5,484.5" style="stroke-width: 0.52; stroke-opacity: 1; stroke: rgb(80, 80, 80);"></path><path class="link" marker-end="" d="M667.5,404.5, 847.5,524.5" style="stroke-width: 0.52; stroke-opacity: 1; stroke: rgb(80, 80, 80);"></path><path class="link" marker-end="" d="M667.5,444.5, 847.5,484.5" style="stroke-width: 0.52; stroke-opacity: 1; stroke: rgb(80, 80, 80);"></path><path class="link" marker-end="" d="M667.5,444.5, 847.5,524.5" style="stroke-width: 0.52; stroke-opacity: 1; stroke: rgb(80, 80, 80);"></path><path class="link" marker-end="" d="M667.5,484.5, 847.5,484.5" style="stroke-width: 0.52; stroke-opacity: 1; stroke: rgb(80, 80, 80);"></path><path class="link" marker-end="" d="M667.5,484.5, 847.5,524.5" style="stroke-width: 0.52; stroke-opacity: 1; stroke: rgb(80, 80, 80);"></path><path class="link" marker-end="" d="M847.5,484.5, 1027.5,404.5" style="stroke-width: 0.52; stroke-opacity: 1; stroke: rgb(80, 80, 80);"></path><path class="link" marker-end="" d="M847.5,524.5, 1027.5,404.5" style="stroke-width: 0.52; stroke-opacity: 1; stroke: rgb(80, 80, 80);"></path><path class="link" marker-end="" d="M847.5,324.5, 1027.5,444.5" style="stroke-width: 0.52; stroke-opacity: 1; stroke: rgb(80, 80, 80);"></path><path class="link" marker-end="" d="M847.5,364.5, 1027.5,444.5" style="stroke-width: 0.52; stroke-opacity: 1; stroke: rgb(80, 80, 80);"></path><path class="link" marker-end="" d="M847.5,404.5, 1027.5,444.5" style="stroke-width: 0.52; stroke-opacity: 1; stroke: rgb(80, 80, 80);"></path><path class="link" marker-end="" d="M847.5,444.5, 1027.5,444.5" style="stroke-width: 0.52; stroke-opacity: 1; stroke: rgb(80, 80, 80);"></path><path class="link" marker-end="" d="M847.5,484.5, 1027.5,444.5" style="stroke-width: 0.52; stroke-opacity: 1; stroke: rgb(80, 80, 80);"></path><path class="link" marker-end="" d="M847.5,524.5, 1027.5,444.5" style="stroke-width: 0.52; stroke-opacity: 1; stroke: rgb(80, 80, 80);"></path><circle r="10" class="node" id="0_0" cx="667.5" cy="364.5" style="fill: rgb(255, 255, 255); stroke: rgb(51, 51, 51);"></circle><circle r="10" class="node" id="0_1" cx="667.5" cy="404.5" style="fill: rgb(255, 255, 255); stroke: rgb(51, 51, 51);"></circle><circle r="10" class="node" id="0_2" cx="667.5" cy="444.5" style="fill: rgb(255, 255, 255); stroke: rgb(51, 51, 51);"></circle><circle r="10" class="node" id="0_3" cx="667.5" cy="484.5" style="fill: rgb(255, 255, 255); stroke: rgb(51, 51, 51);"></circle><circle r="10" class="node" id="1_0" cx="847.5" cy="324.5" style="fill: rgb(255, 255, 255); stroke: rgb(51, 51, 51);"></circle><circle r="10" class="node" id="1_1" cx="847.5" cy="364.5" style="fill: rgb(255, 255, 255); stroke: rgb(51, 51, 51);"></circle><circle r="10" class="node" id="1_2" cx="847.5" cy="404.5" style="fill: rgb(255, 255, 255); stroke: rgb(51, 51, 51);"></circle><circle r="10" class="node" id="1_3" cx="847.5" cy="444.5" style="fill: rgb(255, 255, 255); stroke: rgb(51, 51, 51);"></circle><circle r="10" class="node" id="1_4" cx="847.5" cy="484.5" style="fill: rgb(255, 255, 255); stroke: rgb(51, 51, 51);"></circle><circle r="10" class="node" id="1_5" cx="847.5" cy="524.5" style="fill: rgb(255, 255, 255); stroke: rgb(51, 51, 51);"></circle><circle r="10" class="node" id="2_0" cx="1027.5" cy="404.5" style="fill: rgb(255, 255, 255); stroke: rgb(51, 51, 51);"></circle><text class="text" dy=".35em" x="632.5" y="564.5" style="font-size: 12px;">Input Layer ∈ ℝ⁴</text><text class="text" dy=".35em" x="812.5" y="564.5" style="font-size: 12px;">Hidden Layer ∈ ℝ⁶</text><text class="text" dy=".35em" x="992.5" y="564.5" style="font-size: 12px;">Output Layer ∈ ℝ²</text><circle r="10" class="node" id="2_1" cx="1027.5" cy="444.5" style="fill: rgb(255, 255, 255); stroke: rgb(51, 51, 51);"></circle></g><defs><marker id="arrow" viewBox="0 -5 10 10" markerWidth="7" markerHeight="7" orient="auto" refX="40"><path d="M0,-5L10,0L0,5" style="stroke: rgb(80, 80, 80); fill: none;"></path></marker></defs></svg>